<svg id="Layer_1" data-name="Layer 1" xmlns="http://www.w3.org/2000/svg" viewBox="0 0 145.03 73.95"><defs><style>.cls-1{fill:#120800;}.cls-2{isolation:isolate;}</style></defs><g id="Group_327" data-name="Group 327"><path id="Path_234" data-name="Path 234" class="cls-1" d="M238.16,313.39a181.2,181.2,0,0,1,10.38-34.87h21.35L282.64,296h2l10.44-17.44h21.2c4.07,7,8.3,19.56,12.6,34.87H308.44L308.29,298l-4.76-6.15-11.67,21.5H276L264.82,292l-4.14,5.52-2.92,15.82Z" transform="translate(-238.16 -278.52)"/><path id="Path_235" data-name="Path 235" class="cls-1" d="M238.16,317.61a181.2,181.2,0,0,0,10.38,34.87h21.35L282.64,335h2l10.45,17.44h21.2c4.07-7,8.29-19.56,12.6-34.87H308.44L308.29,333l-4.76,6.14-11.67-21.5H276L264.82,339l-4.14-5.53-2.92-15.82Z" transform="translate(-238.16 -278.52)"/></g><g id="Musician_Warehouse" data-name="Musician Warehouse" class="cls-2"><g class="cls-2"><path class="cls-1" d="M332.54,320.57h1.7l2,5.06h0l2-5.06H340v7h-1.32v-4.76H338l1.47-2.09-2.73,6.85h-.93l-2.73-6.85,1.47,2.09h-.68v4.76h-1.31Z" transform="translate(-238.16 -278.52)"/><path class="cls-1" d="M341.83,327.48a1.49,1.49,0,0,1-.62-.67,2.46,2.46,0,0,1-.21-1.05v-3.38h1.43v3.08a1.17,1.17,0,0,0,.24.79.89.89,0,0,0,.72.29,1,1,0,0,0,.92-.56,1.38,1.38,0,0,0,.13-.59v-3h1.42v5.23h-1.42v-.86h0a1.54,1.54,0,0,1-.6.71,1.83,1.83,0,0,1-1,.26A1.86,1.86,0,0,1,341.83,327.48Z" transform="translate(-238.16 -278.52)"/><path class="cls-1" d="M347.71,327.51a1.85,1.85,0,0,1-.79-.58,1.77,1.77,0,0,1-.35-.87v0H348v0a.83.83,0,0,0,.31.48,1.15,1.15,0,0,0,.66.17,1.33,1.33,0,0,0,.47-.07.65.65,0,0,0,.29-.18.46.46,0,0,0,.11-.3h0a.41.41,0,0,0-.16-.34,1.36,1.36,0,0,0-.53-.21l-.89-.19a2.17,2.17,0,0,1-1.15-.54,1.27,1.27,0,0,1-.38-1h0A1.45,1.45,0,0,1,347,323a1.8,1.8,0,0,1,.76-.57,3.16,3.16,0,0,1,1.16-.2,2.76,2.76,0,0,1,1.18.22,1.76,1.76,0,0,1,.75.6,1.56,1.56,0,0,1,.28.84v0h-1.32v0a.72.72,0,0,0-.26-.47,1,1,0,0,0-.63-.19,1.09,1.09,0,0,0-.42.07.66.66,0,0,0-.28.19.43.43,0,0,0-.1.29h0a.41.41,0,0,0,.16.33,1.1,1.1,0,0,0,.55.22l.89.19a2.45,2.45,0,0,1,1.18.52,1.21,1.21,0,0,1,.36.92h0a1.44,1.44,0,0,1-.29.89,1.92,1.92,0,0,1-.81.6,3.12,3.12,0,0,1-1.19.21A3.23,3.23,0,0,1,347.71,327.51Z" transform="translate(-238.16 -278.52)"/><path class="cls-1" d="M352.13,321.49a.73.73,0,0,1-.22-.53.69.69,0,0,1,.22-.52.79.79,0,0,1,1.09,0,.69.69,0,0,1,.22.52.73.73,0,0,1-.22.53.79.79,0,0,1-1.09,0Zm-.17.89h1.43v5.23H352Z" transform="translate(-238.16 -278.52)"/><path class="cls-1" d="M355.36,327.39a2.23,2.23,0,0,1-.9-.95,3.13,3.13,0,0,1-.31-1.45h0a3.1,3.1,0,0,1,.31-1.45,2.27,2.27,0,0,1,.9-.94,2.71,2.71,0,0,1,1.36-.33,2.67,2.67,0,0,1,1.24.27,2,2,0,0,1,.81.72,2,2,0,0,1,.33,1v0h-1.33v0a1.14,1.14,0,0,0-.33-.63.94.94,0,0,0-.7-.25,1,1,0,0,0-.6.19,1.21,1.21,0,0,0-.4.55,2.46,2.46,0,0,0-.14.86h0a2.48,2.48,0,0,0,.14.87,1.13,1.13,0,0,0,.4.54,1,1,0,0,0,.6.19,1,1,0,0,0,.7-.24,1.13,1.13,0,0,0,.33-.64v0h1.33v0a2,2,0,0,1-1.15,1.74,2.58,2.58,0,0,1-1.22.27A2.72,2.72,0,0,1,355.36,327.39Z" transform="translate(-238.16 -278.52)"/><path class="cls-1" d="M360,321.49a.73.73,0,0,1-.22-.53.69.69,0,0,1,.22-.52.77.77,0,0,1,1.31.52.77.77,0,0,1-.22.53.79.79,0,0,1-1.09,0Zm-.17.89h1.43v5.23h-1.43Z" transform="translate(-238.16 -278.52)"/><path class="cls-1" d="M362.84,327.49a1.41,1.41,0,0,1-.62-.56,1.51,1.51,0,0,1-.23-.82h0a1.33,1.33,0,0,1,.54-1.12,2.72,2.72,0,0,1,1.5-.47l2.05-.13v.89l-1.83.13a1.12,1.12,0,0,0-.63.19.52.52,0,0,0-.21.44h0a.52.52,0,0,0,.22.45,1,1,0,0,0,.59.17,1.33,1.33,0,0,0,.57-.13.93.93,0,0,0,.39-.34.86.86,0,0,0,.15-.49v-1.59a.71.71,0,0,0-.22-.55.94.94,0,0,0-.64-.2,1.1,1.1,0,0,0-.64.17.66.66,0,0,0-.28.42v0h-1.31v-.06a1.65,1.65,0,0,1,.33-.86,1.82,1.82,0,0,1,.78-.59,3.05,3.05,0,0,1,1.19-.21,2.81,2.81,0,0,1,1.17.22,1.78,1.78,0,0,1,.78.61,1.58,1.58,0,0,1,.27.92v3.59h-1.42v-.77h0a1.65,1.65,0,0,1-.38.45,1.62,1.62,0,0,1-.53.3,1.85,1.85,0,0,1-.63.11A1.92,1.92,0,0,1,362.84,327.49Z" transform="translate(-238.16 -278.52)"/><path class="cls-1" d="M367.67,322.38h1.43v.86h0a1.61,1.61,0,0,1,.6-.71,1.82,1.82,0,0,1,1-.26,1.7,1.7,0,0,1,1.34.52,2.1,2.1,0,0,1,.47,1.44v3.38H371.1v-3.08a1.17,1.17,0,0,0-.24-.79.89.89,0,0,0-.72-.29,1,1,0,0,0-.55.15,1,1,0,0,0-.36.4,1.32,1.32,0,0,0-.13.6v3h-1.43Z" transform="translate(-238.16 -278.52)"/></g><g class="cls-2"><path class="cls-1" d="M332.15,332.57h1.54l1.11,5.05h0l1.3-5.05h1.29l1.3,5.05h0l1.11-5.05h1.54l-1.87,7h-1.44l-1.3-4.71h0l-1.29,4.71H334Z" transform="translate(-238.16 -278.52)"/><path class="cls-1" d="M342,339.49a1.53,1.53,0,0,1-.62-.56,1.59,1.59,0,0,1-.22-.82h0a1.33,1.33,0,0,1,.54-1.12,2.72,2.72,0,0,1,1.5-.47l2-.13v.89l-1.82.13a1.12,1.12,0,0,0-.63.19.52.52,0,0,0-.21.44h0a.52.52,0,0,0,.22.45.94.94,0,0,0,.59.17,1.33,1.33,0,0,0,.57-.13.93.93,0,0,0,.39-.34.86.86,0,0,0,.15-.49v-1.59a.75.75,0,0,0-.22-.55.94.94,0,0,0-.64-.2,1.1,1.1,0,0,0-.64.17.66.66,0,0,0-.28.42v0h-1.31v-.06a1.65,1.65,0,0,1,.33-.86,1.76,1.76,0,0,1,.78-.59,3.05,3.05,0,0,1,1.19-.21,2.81,2.81,0,0,1,1.17.22,1.78,1.78,0,0,1,.78.61,1.58,1.58,0,0,1,.27.92v3.59h-1.42v-.77h0a1.65,1.65,0,0,1-.38.45,1.73,1.73,0,0,1-.53.3,1.85,1.85,0,0,1-.63.11A2,2,0,0,1,342,339.49Z" transform="translate(-238.16 -278.52)"/><path class="cls-1" d="M346.88,334.38h1.43v.91h0a1.39,1.39,0,0,1,.42-.75,1.13,1.13,0,0,1,.77-.27l.22,0a1,1,0,0,1,.19,0v1.26l-.23-.06-.29,0a1.27,1.27,0,0,0-.6.14.87.87,0,0,0-.38.4,1.38,1.38,0,0,0-.13.64v2.93h-1.43Z" transform="translate(-238.16 -278.52)"/><path class="cls-1" d="M351.35,339.39a2.16,2.16,0,0,1-.88-.94,3.13,3.13,0,0,1-.32-1.45h0a3.13,3.13,0,0,1,.32-1.45,2.29,2.29,0,0,1,.87-.95,2.6,2.6,0,0,1,1.33-.33,2.67,2.67,0,0,1,1.33.32,2.25,2.25,0,0,1,.86.92,2.9,2.9,0,0,1,.31,1.38v.45h-4.31v-.91h3.63l-.68.85v-.55a1.74,1.74,0,0,0-.14-.77,1,1,0,0,0-.39-.47,1.12,1.12,0,0,0-.58-.16,1.07,1.07,0,0,0-.59.17,1,1,0,0,0-.4.47,1.72,1.72,0,0,0-.15.76v.55a1.65,1.65,0,0,0,.15.74,1,1,0,0,0,.41.47,1.2,1.2,0,0,0,.64.17,1.32,1.32,0,0,0,.51-.1,1.12,1.12,0,0,0,.35-.23,1,1,0,0,0,.19-.29v0h1.31v.05a2,2,0,0,1-.69,1.12,2,2,0,0,1-.71.39,2.88,2.88,0,0,1-1,.15A2.76,2.76,0,0,1,351.35,339.39Z" transform="translate(-238.16 -278.52)"/><path class="cls-1" d="M355.93,332.57h1.43v2.71h0a1.68,1.68,0,0,1,.61-.75,2,2,0,0,1,2,0,1.74,1.74,0,0,1,.63.71,2.48,2.48,0,0,1,.22,1.1v3.28H359.4v-3a1.32,1.32,0,0,0-.26-.86.93.93,0,0,0-.74-.31,1,1,0,0,0-.55.15,1.1,1.1,0,0,0-.36.41,1.32,1.32,0,0,0-.13.6v3h-1.43Z" transform="translate(-238.16 -278.52)"/><path class="cls-1" d="M362.77,339.4a2.21,2.21,0,0,1-.9-.94,3.18,3.18,0,0,1-.32-1.46h0a3.15,3.15,0,0,1,.32-1.46,2.33,2.33,0,0,1,.91-.93,2.71,2.71,0,0,1,1.36-.33,2.83,2.83,0,0,1,1.37.32,2.29,2.29,0,0,1,.91.94,3.12,3.12,0,0,1,.32,1.46h0a3.18,3.18,0,0,1-.32,1.46,2.21,2.21,0,0,1-.9.94,3.11,3.11,0,0,1-2.75,0Zm2-1a1.2,1.2,0,0,0,.4-.54,2.49,2.49,0,0,0,.13-.87h0a2.27,2.27,0,0,0-.14-.87,1.12,1.12,0,0,0-.39-.54,1,1,0,0,0-.61-.19,1,1,0,0,0-.6.19,1.2,1.2,0,0,0-.39.55,2.17,2.17,0,0,0-.15.86h0a2.48,2.48,0,0,0,.14.87,1.2,1.2,0,0,0,.4.54,1,1,0,0,0,.61.19A1,1,0,0,0,364.75,338.41Z" transform="translate(-238.16 -278.52)"/><path class="cls-1" d="M368.27,339.48a1.47,1.47,0,0,1-.61-.67,2.46,2.46,0,0,1-.21-1.05v-3.38h1.42v3.08a1.12,1.12,0,0,0,.25.79.89.89,0,0,0,.72.29,1,1,0,0,0,.55-.15,1,1,0,0,0,.36-.41,1.25,1.25,0,0,0,.13-.59v-3h1.43v5.23h-1.43v-.86h0a1.67,1.67,0,0,1-.6.71,1.83,1.83,0,0,1-1,.26A1.9,1.9,0,0,1,368.27,339.48Z" transform="translate(-238.16 -278.52)"/><path class="cls-1" d="M374.15,339.51a1.92,1.92,0,0,1-.79-.58,1.75,1.75,0,0,1-.34-.87v0h1.4v0a.77.77,0,0,0,.3.48,1.16,1.16,0,0,0,.67.17,1.27,1.27,0,0,0,.46-.07.64.64,0,0,0,.3-.18.45.45,0,0,0,.1-.3h0a.43.43,0,0,0-.15-.34,1.43,1.43,0,0,0-.54-.21l-.89-.19a2.14,2.14,0,0,1-1.14-.54,1.27,1.27,0,0,1-.39-1h0a1.45,1.45,0,0,1,.27-.87,1.83,1.83,0,0,1,.77-.57,3.16,3.16,0,0,1,1.16-.2,2.83,2.83,0,0,1,1.18.22,1.79,1.79,0,0,1,.74.6,1.48,1.48,0,0,1,.28.84v0h-1.31v0a.68.68,0,0,0-.26-.47.92.92,0,0,0-.62-.19,1.14,1.14,0,0,0-.43.07.62.62,0,0,0-.27.19.43.43,0,0,0-.1.29h0a.43.43,0,0,0,.15.33,1.14,1.14,0,0,0,.56.22l.88.19a2.5,2.5,0,0,1,1.19.52,1.21,1.21,0,0,1,.36.92h0a1.39,1.39,0,0,1-.3.89,1.82,1.82,0,0,1-.8.6,3.16,3.16,0,0,1-1.19.21A3.28,3.28,0,0,1,374.15,339.51Z" transform="translate(-238.16 -278.52)"/><path class="cls-1" d="M379.39,339.39a2.19,2.19,0,0,1-.89-.94,3.13,3.13,0,0,1-.31-1.45h0a3.13,3.13,0,0,1,.31-1.45,2.35,2.35,0,0,1,.87-.95,2.6,2.6,0,0,1,1.33-.33,2.64,2.64,0,0,1,1.33.32,2.25,2.25,0,0,1,.86.92,2.9,2.9,0,0,1,.31,1.38v.45h-4.31v-.91h3.64l-.68.85v-.55a1.89,1.89,0,0,0-.14-.77,1,1,0,0,0-1-.63,1.07,1.07,0,0,0-.59.17,1,1,0,0,0-.4.47,1.72,1.72,0,0,0-.14.76v.55a1.66,1.66,0,0,0,.14.74,1.05,1.05,0,0,0,.41.47,1.2,1.2,0,0,0,.64.17,1.29,1.29,0,0,0,.51-.1,1.12,1.12,0,0,0,.35-.23,1,1,0,0,0,.19-.29v0h1.31l0,.05a1.81,1.81,0,0,1-.23.59,2.06,2.06,0,0,1-.46.53,2,2,0,0,1-.71.39,2.88,2.88,0,0,1-1,.15A2.7,2.7,0,0,1,379.39,339.39Z" transform="translate(-238.16 -278.52)"/></g></g></svg>