<?xml version="1.0" encoding="utf-8"?>
<!-- Generator: Adobe Illustrator 25.2.3, SVG Export Plug-In . SVG Version: 6.00 Build 0)  -->
<svg version="1.1" id="Layer_1" xmlns="http://www.w3.org/2000/svg" xmlns:xlink="http://www.w3.org/1999/xlink" x="0px" y="0px"
	 viewBox="0 0 107.9 23.5" style="enable-background:new 0 0 107.9 23.5;" xml:space="preserve">
<style type="text/css">
	.st0{enable-background:new    ;}
</style>
<g>
	<g id="Group_2" transform="translate(134.057 110.224)">
		<path id="Path_4" d="M-134.1-99.1c0.7-3.8,1.8-7.5,3.3-11.1h6.8l4.1,5.6h0.6l3.3-5.6h6.8c1.3,2.2,2.6,6.2,4,11.1h-6.5l0-4.9
			l-1.5-2l-3.7,6.8h-5l-3.6-6.8l-1.3,1.8l-0.9,5H-134.1z"/>
		<path id="Path_5" d="M-134.1-97.8c0.7,3.8,1.8,7.5,3.3,11.1h6.8l4.1-5.6h0.6l3.3,5.6h6.8c1.3-2.2,2.6-6.2,4-11.1h-6.5l0,4.9
			l-1.5,2l-3.7-6.8h-5l-3.6,6.8l-1.3-1.8l-0.9-5H-134.1z"/>
	</g>
	<g class="st0">
		<path d="M37,0.8l2.3,6.9h0l2.2-6.9h3.1v10h-2.1V3.7h0l-2.5,7.1h-1.7l-2.5-7h0v7h-2.1v-10H37z"/>
		<path d="M51.3,10.8v-1h0c-0.3,0.4-0.6,0.7-1,0.9S49.5,11,49,11c-0.5,0-1-0.1-1.3-0.2c-0.3-0.1-0.6-0.3-0.8-0.6
			c-0.2-0.3-0.3-0.6-0.4-0.9c-0.1-0.4-0.1-0.8-0.1-1.2V3.5h2v4.1c0,0.6,0.1,1,0.3,1.3c0.2,0.3,0.5,0.4,1,0.4c0.5,0,0.9-0.2,1.2-0.5
			c0.2-0.3,0.4-0.9,0.4-1.6V3.5h2v7.2H51.3z"/>
		<path d="M56.4,9c0.1,0.2,0.2,0.3,0.3,0.4c0.1,0.1,0.3,0.2,0.5,0.2s0.4,0.1,0.6,0.1c0.1,0,0.3,0,0.4,0c0.2,0,0.3-0.1,0.4-0.2
			s0.2-0.2,0.3-0.3C59,9,59.1,8.9,59.1,8.7c0-0.3-0.2-0.5-0.6-0.7c-0.4-0.1-0.9-0.3-1.7-0.4c-0.3-0.1-0.6-0.1-0.8-0.2
			S55.4,7.2,55.2,7c-0.2-0.1-0.4-0.3-0.5-0.5c-0.1-0.2-0.2-0.5-0.2-0.8c0-0.5,0.1-0.8,0.3-1.1C55,4.2,55.2,4,55.5,3.8s0.6-0.3,1-0.4
			c0.4-0.1,0.8-0.1,1.1-0.1c0.4,0,0.8,0,1.1,0.1c0.4,0.1,0.7,0.2,1,0.4c0.3,0.2,0.5,0.4,0.7,0.7c0.2,0.3,0.3,0.7,0.3,1.1H59
			c0-0.4-0.2-0.6-0.4-0.8c-0.3-0.1-0.6-0.2-0.9-0.2c-0.1,0-0.2,0-0.4,0s-0.2,0-0.4,0.1S56.7,4.9,56.6,5c-0.1,0.1-0.1,0.2-0.1,0.4
			c0,0.2,0.1,0.3,0.2,0.4S57,6,57.2,6.1c0.2,0.1,0.5,0.1,0.7,0.2c0.3,0.1,0.5,0.1,0.8,0.2c0.3,0.1,0.6,0.1,0.8,0.2
			c0.3,0.1,0.5,0.2,0.7,0.4s0.4,0.3,0.5,0.6c0.1,0.2,0.2,0.5,0.2,0.8c0,0.5-0.1,0.9-0.3,1.2c-0.2,0.3-0.4,0.6-0.7,0.8
			c-0.3,0.2-0.7,0.3-1.1,0.4c-0.4,0.1-0.8,0.1-1.2,0.1c-0.4,0-0.8,0-1.2-0.1c-0.4-0.1-0.8-0.2-1.1-0.4c-0.3-0.2-0.6-0.5-0.8-0.8
			c-0.2-0.3-0.3-0.7-0.3-1.2h1.9C56.2,8.6,56.3,8.8,56.4,9z"/>
		<path d="M62.3,2.4V0.8h2v1.6H62.3z M64.3,3.5v7.2h-2V3.5H64.3z"/>
		<path d="M69.3,4.8c-0.3,0-0.6,0.1-0.8,0.2S68.1,5.4,68,5.6c-0.1,0.2-0.2,0.5-0.3,0.8c-0.1,0.3-0.1,0.5-0.1,0.8
			c0,0.3,0,0.5,0.1,0.8c0.1,0.3,0.1,0.5,0.3,0.7c0.1,0.2,0.3,0.4,0.5,0.5c0.2,0.1,0.5,0.2,0.8,0.2c0.5,0,0.8-0.1,1.1-0.4
			c0.3-0.3,0.4-0.6,0.5-1.1h1.9c-0.1,1-0.5,1.7-1.1,2.2C71,10.7,70.2,11,69.3,11c-0.5,0-1-0.1-1.5-0.3c-0.5-0.2-0.8-0.4-1.2-0.8
			c-0.3-0.3-0.6-0.7-0.7-1.2c-0.2-0.5-0.3-0.9-0.3-1.5c0-0.6,0.1-1.1,0.2-1.6c0.2-0.5,0.4-0.9,0.7-1.2c0.3-0.3,0.7-0.6,1.2-0.8
			c0.5-0.2,1-0.3,1.6-0.3c0.4,0,0.8,0.1,1.2,0.2c0.4,0.1,0.8,0.3,1.1,0.5s0.6,0.5,0.8,0.9c0.2,0.3,0.3,0.7,0.3,1.2h-1.9
			C70.6,5.3,70.1,4.8,69.3,4.8z"/>
		<path d="M73.9,2.4V0.8h2v1.6H73.9z M75.9,3.5v7.2h-2V3.5H75.9z"/>
		<path d="M77.4,5.8c0-0.5,0.1-0.9,0.3-1.2c0.2-0.3,0.5-0.6,0.8-0.7s0.7-0.3,1.1-0.4c0.4-0.1,0.8-0.1,1.2-0.1c0.4,0,0.7,0,1.1,0.1
			c0.4,0.1,0.7,0.2,1,0.3c0.3,0.1,0.6,0.4,0.8,0.6C83.9,4.6,84,5,84,5.4v3.8c0,0.3,0,0.6,0.1,0.9s0.1,0.5,0.2,0.7h-2
			c0-0.1-0.1-0.2-0.1-0.3c0-0.1,0-0.2,0-0.4c-0.3,0.3-0.7,0.6-1.1,0.7c-0.4,0.1-0.9,0.2-1.3,0.2c-0.3,0-0.7,0-1-0.1
			s-0.6-0.2-0.8-0.4c-0.2-0.2-0.4-0.4-0.5-0.7s-0.2-0.6-0.2-1c0-0.4,0.1-0.7,0.2-1c0.1-0.3,0.3-0.5,0.6-0.6c0.2-0.2,0.5-0.3,0.8-0.4
			c0.3-0.1,0.6-0.1,0.9-0.2s0.6-0.1,0.9-0.1c0.3,0,0.5-0.1,0.8-0.1c0.2-0.1,0.4-0.1,0.5-0.2C81.9,6,82,5.9,82,5.7
			c0-0.2,0-0.4-0.1-0.5c-0.1-0.1-0.2-0.2-0.3-0.3c-0.1-0.1-0.3-0.1-0.4-0.1c-0.2,0-0.3,0-0.5,0c-0.4,0-0.7,0.1-0.9,0.3
			s-0.4,0.4-0.4,0.8H77.4z M82,7.2c-0.1,0.1-0.2,0.1-0.3,0.2s-0.3,0.1-0.4,0.1c-0.1,0-0.3,0.1-0.5,0.1c-0.2,0-0.3,0-0.5,0.1
			c-0.1,0-0.3,0.1-0.4,0.1S79.6,7.9,79.5,8c-0.1,0.1-0.2,0.2-0.3,0.3c-0.1,0.1-0.1,0.3-0.1,0.5c0,0.2,0,0.3,0.1,0.4
			c0.1,0.1,0.2,0.2,0.3,0.3c0.1,0.1,0.2,0.1,0.4,0.1c0.1,0,0.3,0,0.5,0c0.4,0,0.7-0.1,0.9-0.2s0.4-0.3,0.5-0.5
			c0.1-0.2,0.2-0.4,0.2-0.6c0-0.2,0-0.3,0-0.4V7.2z"/>
		<path d="M87.4,3.5v1h0c0.3-0.4,0.6-0.7,1-0.9c0.4-0.2,0.8-0.3,1.2-0.3c0.5,0,1,0.1,1.3,0.2s0.6,0.3,0.8,0.6
			c0.2,0.3,0.3,0.6,0.4,0.9c0.1,0.4,0.1,0.8,0.1,1.2v4.5h-2V6.7c0-0.6-0.1-1-0.3-1.3s-0.5-0.4-1-0.4c-0.5,0-0.9,0.2-1.2,0.5
			c-0.2,0.3-0.4,0.9-0.4,1.6v3.8h-2V3.5H87.4z"/>
	</g>
	<g class="st0">
		<path d="M41.2,22.8L39.6,16h0l-1.7,6.8h-2.2l-2.6-10h2.2l1.6,6.8h0l1.7-6.8h2.1l1.7,6.9h0l1.6-6.9h2.2l-2.7,10H41.2z"/>
		<path d="M46.3,17.8c0-0.5,0.1-0.9,0.4-1.2c0.2-0.3,0.5-0.6,0.8-0.7c0.3-0.2,0.7-0.3,1.1-0.4c0.4-0.1,0.8-0.1,1.2-0.1
			c0.4,0,0.7,0,1.1,0.1c0.4,0.1,0.7,0.2,1,0.3c0.3,0.1,0.6,0.4,0.8,0.6c0.2,0.3,0.3,0.6,0.3,1.1v3.8c0,0.3,0,0.6,0.1,0.9
			c0,0.3,0.1,0.5,0.2,0.7h-2c0-0.1-0.1-0.2-0.1-0.3c0-0.1,0-0.2,0-0.4c-0.3,0.3-0.7,0.6-1.1,0.7C49.4,22.9,49,23,48.6,23
			c-0.3,0-0.7,0-1-0.1s-0.6-0.2-0.8-0.4s-0.4-0.4-0.5-0.7s-0.2-0.6-0.2-1c0-0.4,0.1-0.7,0.2-1c0.1-0.3,0.3-0.5,0.6-0.6
			c0.2-0.2,0.5-0.3,0.8-0.4c0.3-0.1,0.6-0.1,0.9-0.2s0.6-0.1,0.9-0.1c0.3,0,0.5-0.1,0.8-0.1c0.2-0.1,0.4-0.1,0.5-0.2
			c0.1-0.1,0.2-0.3,0.2-0.5c0-0.2,0-0.4-0.1-0.5c-0.1-0.1-0.2-0.2-0.3-0.3c-0.1-0.1-0.3-0.1-0.4-0.1c-0.2,0-0.3,0-0.5,0
			c-0.4,0-0.7,0.1-0.9,0.3c-0.2,0.2-0.4,0.4-0.4,0.8H46.3z M50.9,19.2c-0.1,0.1-0.2,0.1-0.3,0.2s-0.3,0.1-0.4,0.1
			c-0.1,0-0.3,0.1-0.5,0.1c-0.2,0-0.3,0-0.5,0.1c-0.1,0-0.3,0.1-0.4,0.1s-0.3,0.1-0.4,0.2c-0.1,0.1-0.2,0.2-0.3,0.3
			c-0.1,0.1-0.1,0.3-0.1,0.5c0,0.2,0,0.3,0.1,0.4c0.1,0.1,0.2,0.2,0.3,0.3c0.1,0.1,0.2,0.1,0.4,0.1c0.1,0,0.3,0,0.5,0
			c0.4,0,0.7-0.1,0.9-0.2s0.4-0.3,0.5-0.5c0.1-0.2,0.2-0.4,0.2-0.6c0-0.2,0-0.3,0-0.4V19.2z"/>
		<path d="M56.3,15.5v1.3h0c0.1-0.2,0.2-0.4,0.4-0.6c0.2-0.2,0.3-0.4,0.5-0.5c0.2-0.1,0.4-0.2,0.7-0.3c0.2-0.1,0.5-0.1,0.7-0.1
			c0.1,0,0.3,0,0.4,0.1v1.8c-0.1,0-0.2,0-0.3,0c-0.1,0-0.3,0-0.4,0c-0.4,0-0.7,0.1-0.9,0.2c-0.3,0.1-0.5,0.3-0.6,0.5
			c-0.2,0.2-0.3,0.5-0.3,0.7s-0.1,0.6-0.1,0.9v3.3h-2v-7.2H56.3z"/>
		<path d="M61.8,21c0.3,0.3,0.7,0.4,1.3,0.4c0.4,0,0.7-0.1,1-0.3c0.3-0.2,0.5-0.4,0.5-0.6h1.8c-0.3,0.9-0.7,1.5-1.3,1.9
			C64.5,22.8,63.8,23,63,23c-0.6,0-1.1-0.1-1.5-0.3c-0.5-0.2-0.8-0.4-1.2-0.8s-0.6-0.7-0.7-1.2c-0.2-0.5-0.3-1-0.3-1.5
			c0-0.5,0.1-1,0.3-1.5c0.2-0.5,0.4-0.9,0.8-1.2c0.3-0.3,0.7-0.6,1.2-0.8c0.5-0.2,1-0.3,1.5-0.3c0.6,0,1.2,0.1,1.6,0.4
			c0.5,0.2,0.8,0.6,1.1,1s0.5,0.9,0.6,1.4c0.1,0.5,0.2,1,0.1,1.6h-5.2C61.3,20.3,61.5,20.8,61.8,21z M64,17.2
			c-0.2-0.3-0.6-0.4-1.1-0.4c-0.3,0-0.6,0.1-0.8,0.2c-0.2,0.1-0.4,0.2-0.5,0.4c-0.1,0.2-0.2,0.3-0.3,0.5c-0.1,0.2-0.1,0.3-0.1,0.5
			h3.2C64.4,17.9,64.2,17.5,64,17.2z"/>
		<path d="M69.7,12.8v3.8h0c0.3-0.4,0.6-0.7,1-0.9c0.4-0.2,0.8-0.3,1.1-0.3c0.5,0,1,0.1,1.3,0.2s0.6,0.3,0.8,0.6
			c0.2,0.3,0.3,0.6,0.4,0.9c0.1,0.4,0.1,0.8,0.1,1.2v4.5h-2v-4.1c0-0.6-0.1-1-0.3-1.3s-0.5-0.4-1-0.4c-0.5,0-0.9,0.2-1.2,0.5
			c-0.2,0.3-0.4,0.9-0.4,1.6v3.8h-2v-10H69.7z"/>
		<path d="M76,17.6c0.2-0.5,0.4-0.9,0.8-1.2c0.3-0.3,0.7-0.6,1.2-0.8c0.5-0.2,1-0.3,1.5-0.3s1.1,0.1,1.5,0.3
			c0.5,0.2,0.9,0.4,1.2,0.8c0.3,0.3,0.6,0.7,0.8,1.2c0.2,0.5,0.3,1,0.3,1.6c0,0.6-0.1,1.1-0.3,1.6c-0.2,0.5-0.4,0.9-0.8,1.2
			c-0.3,0.3-0.7,0.6-1.2,0.8S80,23,79.5,23s-1.1-0.1-1.5-0.3s-0.8-0.4-1.2-0.8c-0.3-0.3-0.6-0.7-0.8-1.2c-0.2-0.5-0.3-1-0.3-1.6
			C75.7,18.6,75.8,18.1,76,17.6z M77.8,20c0.1,0.3,0.2,0.5,0.3,0.7c0.1,0.2,0.3,0.4,0.5,0.5s0.5,0.2,0.8,0.2s0.6-0.1,0.8-0.2
			c0.2-0.1,0.4-0.3,0.5-0.5c0.1-0.2,0.2-0.5,0.3-0.7c0.1-0.3,0.1-0.6,0.1-0.8c0-0.3,0-0.6-0.1-0.9c-0.1-0.3-0.2-0.5-0.3-0.7
			c-0.1-0.2-0.3-0.4-0.5-0.5c-0.2-0.1-0.5-0.2-0.8-0.2s-0.6,0.1-0.8,0.2c-0.2,0.1-0.4,0.3-0.5,0.5s-0.2,0.5-0.3,0.7
			c-0.1,0.3-0.1,0.6-0.1,0.9C77.7,19.5,77.8,19.7,77.8,20z"/>
		<path d="M89.4,22.8v-1h0c-0.3,0.4-0.6,0.7-1,0.9S87.6,23,87.2,23c-0.5,0-1-0.1-1.3-0.2c-0.3-0.1-0.6-0.3-0.8-0.6
			c-0.2-0.3-0.3-0.6-0.4-0.9c-0.1-0.4-0.1-0.8-0.1-1.2v-4.5h2v4.1c0,0.6,0.1,1,0.3,1.3c0.2,0.3,0.5,0.4,1,0.4c0.5,0,0.9-0.2,1.2-0.5
			c0.2-0.3,0.4-0.9,0.4-1.6v-3.8h2v7.2H89.4z"/>
		<path d="M94.5,21c0.1,0.2,0.2,0.3,0.3,0.4c0.1,0.1,0.3,0.2,0.5,0.2s0.4,0.1,0.6,0.1c0.1,0,0.3,0,0.4,0c0.2,0,0.3-0.1,0.4-0.2
			s0.2-0.2,0.3-0.3c0.1-0.1,0.1-0.3,0.1-0.4c0-0.3-0.2-0.5-0.6-0.7c-0.4-0.1-0.9-0.3-1.7-0.4c-0.3-0.1-0.6-0.1-0.8-0.2
			s-0.5-0.2-0.7-0.3c-0.2-0.1-0.4-0.3-0.5-0.5c-0.1-0.2-0.2-0.5-0.2-0.8c0-0.5,0.1-0.8,0.3-1.1s0.4-0.5,0.7-0.7s0.6-0.3,1-0.4
			c0.4-0.1,0.8-0.1,1.1-0.1c0.4,0,0.8,0,1.1,0.1c0.4,0.1,0.7,0.2,1,0.4c0.3,0.2,0.5,0.4,0.7,0.7c0.2,0.3,0.3,0.7,0.3,1.1h-1.9
			c0-0.4-0.2-0.6-0.4-0.8c-0.3-0.1-0.6-0.2-0.9-0.2c-0.1,0-0.2,0-0.4,0s-0.2,0-0.4,0.1s-0.2,0.1-0.3,0.2c-0.1,0.1-0.1,0.2-0.1,0.4
			c0,0.2,0.1,0.3,0.2,0.4s0.3,0.2,0.5,0.3c0.2,0.1,0.5,0.1,0.7,0.2c0.3,0.1,0.5,0.1,0.8,0.2c0.3,0.1,0.6,0.1,0.8,0.2
			c0.3,0.1,0.5,0.2,0.7,0.4s0.4,0.3,0.5,0.6c0.1,0.2,0.2,0.5,0.2,0.8c0,0.5-0.1,0.9-0.3,1.2c-0.2,0.3-0.4,0.6-0.7,0.8
			c-0.3,0.2-0.7,0.3-1.1,0.4c-0.4,0.1-0.8,0.1-1.2,0.1c-0.4,0-0.8,0-1.2-0.1c-0.4-0.1-0.8-0.2-1.1-0.4c-0.3-0.2-0.6-0.5-0.8-0.8
			c-0.2-0.3-0.3-0.7-0.3-1.2h1.9C94.4,20.6,94.4,20.8,94.5,21z"/>
		<path d="M102.5,21c0.3,0.3,0.7,0.4,1.3,0.4c0.4,0,0.7-0.1,1-0.3c0.3-0.2,0.5-0.4,0.5-0.6h1.8c-0.3,0.9-0.7,1.5-1.3,1.9
			s-1.3,0.6-2.1,0.6c-0.6,0-1.1-0.1-1.5-0.3c-0.5-0.2-0.8-0.4-1.2-0.8s-0.6-0.7-0.7-1.2s-0.3-1-0.3-1.5c0-0.5,0.1-1,0.3-1.5
			c0.2-0.5,0.4-0.9,0.8-1.2c0.3-0.3,0.7-0.6,1.2-0.8c0.5-0.2,1-0.3,1.5-0.3c0.6,0,1.2,0.1,1.6,0.4s0.8,0.6,1.1,1s0.5,0.9,0.6,1.4
			c0.1,0.5,0.2,1,0.1,1.6H102C102,20.3,102.2,20.8,102.5,21z M104.7,17.2c-0.2-0.3-0.6-0.4-1.1-0.4c-0.3,0-0.6,0.1-0.8,0.2
			c-0.2,0.1-0.4,0.2-0.5,0.4c-0.1,0.2-0.2,0.3-0.3,0.5c-0.1,0.2-0.1,0.3-0.1,0.5h3.2C105.1,17.9,105,17.5,104.7,17.2z"/>
	</g>
</g>
</svg>
