<svg id="Group_323" data-name="Group 323" xmlns="http://www.w3.org/2000/svg" width="114.026" height="35" viewBox="0 0 114.026 35">
  <path id="Path_229" data-name="Path 229" d="M61.9,34.8,67.679.9H76.9L71.121,34.8Z" transform="translate(-21.705 -0.316)" fill="#4a492f"/>
  <path id="Path_230" data-name="Path 230" d="M112.727,1.429A22.993,22.993,0,0,0,104.481,0C95.325,0,88.9,4.61,88.9,11.169c-.065,4.87,4.61,7.6,8.117,9.221,3.571,1.688,4.805,2.727,4.805,4.221,0,2.273-2.857,3.312-5.519,3.312a19.862,19.862,0,0,1-8.7-1.753l-1.3-.584-1.3,7.6A29.179,29.179,0,0,0,95.325,35c9.74,0,16.039-4.545,16.1-11.558.065-3.831-2.4-6.818-7.727-9.221-3.247-1.558-5.195-2.6-5.195-4.221,0-1.429,1.688-2.922,5.26-2.922a15.991,15.991,0,0,1,6.883,1.3l.844.39,1.234-7.338" transform="translate(-29.805)" fill="#4a492f"/>
  <path id="Path_231" data-name="Path 231" d="M150.314,1h-7.143c-2.208,0-3.9.584-4.87,2.792L124.6,34.831h9.675s1.558-4.156,1.948-5.065h11.818c.26,1.169,1.1,5.065,1.1,5.065h8.571L150.314,1M138.951,22.818c.779-1.948,3.7-9.481,3.7-9.481-.065.065.779-1.948,1.234-3.247l.649,2.922s1.753,8.117,2.143,9.805Z" transform="translate(-43.691 -0.351)" fill="#4a492f"/>
  <path id="Path_232" data-name="Path 232" d="M37.692.9,28.6,24.017l-.974-4.675C26,13.952,20.744,8.043,14.9,5.121L23.147,34.8h9.805L47.5.9H37.692" transform="translate(-5.225 -0.316)" fill="#4a492f"/>
  <path id="Path_233" data-name="Path 233" d="M15,.9H.13L0,1.614c11.623,2.792,19.286,9.61,22.468,17.727L19.221,3.757C18.636,1.614,17.013.965,15,.9" transform="translate(0 -0.316)" fill="rgba(74,73,47,0.33)"/>
</svg>
